#N canvas -8 -8 1600 817 12;
#X obj 608 463 vsl 15 128 0 127 0 0 empty empty empty 0 -8 0 8 -262144
-1 -1 440 1;
#X obj 631 462 vsl 15 128 0 127 0 0 empty empty empty 0 -8 0 8 -262144
-1 -1 337 1;
#X obj 649 462 vsl 15 128 0 127 0 0 empty empty empty 0 -8 0 8 -262144
-1 -1 247 1;
#X obj 667 462 vsl 15 128 0 127 0 0 empty empty empty 0 -8 0 8 -262144
-1 -1 175 1;
#X obj 685 462 vsl 15 128 0 127 0 0 empty empty empty 0 -8 0 8 -262144
-1 -1 117 1;
#X obj 703 462 vsl 15 128 0 127 0 0 empty empty empty 0 -8 0 8 -262144
-1 -1 72 1;
#X obj 581 462 vsl 15 128 0 127 0 0 empty empty empty 0 -8 0 8 -262144
-1 -1 529 1;
#X obj 143 255 metro 10;
#X obj 143 230 loadbang;
#X obj 721 462 vsl 15 128 0 127 0 0 empty empty empty 0 -8 0 8 -262144
-1 -1 34 1;
#X obj 739 462 vsl 15 128 0 127 0 0 empty empty empty 0 -8 0 8 -262144
-1 -1 0 1;
#X obj 143 282 t b b;
#X obj 178 307 s \$0-link;
#X obj 143 333 s \$0-mass;
#X obj 237 405 link \$0-link 0 1 1;
#X obj 385 405 link \$0-link 0 1 1;
#X obj 534 405 link \$0-link 0 1 1;
#X obj 683 405 link \$0-link 0 1 1;
#X obj 833 405 link \$0-link 0 1 1;
#X obj 981 405 link \$0-link 0 1 1;
#X obj 1130 405 link \$0-link 0 1 1;
#X obj 1279 405 link \$0-link 0 1 1;
#X obj 380 381 mass \$0-mass 30;
#X obj 528 380 mass \$0-mass 30;
#X obj 678 381 mass \$0-mass 30;
#X obj 829 381 mass \$0-mass 30;
#X obj 977 380 mass \$0-mass 30;
#X obj 1128 380 mass \$0-mass 30;
#X obj 1275 380 mass \$0-mass 30;
#X obj 983 593 mtof;
#X obj 983 642 line;
#X msg 983 618 \$1 15;
#X obj 983 667 osc~;
#X obj 1039 593 mtof;
#X obj 1039 642 line;
#X msg 1039 618 \$1 15;
#X obj 1039 667 osc~;
#X obj 1094 593 mtof;
#X obj 1094 642 line;
#X msg 1094 618 \$1 15;
#X obj 1094 667 osc~;
#X obj 1150 592 mtof;
#X obj 1150 641 line;
#X msg 1150 617 \$1 15;
#X obj 1150 666 osc~;
#X obj 1206 591 mtof;
#X obj 1206 640 line;
#X msg 1206 616 \$1 15;
#X obj 1206 665 osc~;
#X obj 1261 591 mtof;
#X obj 1261 640 line;
#X msg 1261 616 \$1 15;
#X obj 1261 665 osc~;
#X obj 1317 591 mtof;
#X obj 1317 640 line;
#X msg 1317 616 \$1 15;
#X obj 1317 665 osc~;
#X obj 1114 719 *~ 0.1;
#X obj 1167 719 *~ 0.1;
#X obj 1178 1007 dac~;
#X obj 949 800 bp~ 80 5;
#X obj 1017 803 bp~ 160 5;
#X obj 1093 804 bp~ 380 5;
#X obj 1171 805 bp~ 760 5;
#X obj 968 828 / 127;
#X obj 968 878 *;
#X obj 968 852 t f f;
#X msg 968 904 \$1 10;
#X obj 968 931 line~;
#X obj 948 957 *~;
#X obj 1039 829 / 127;
#X obj 1039 879 *;
#X obj 1039 853 t f f;
#X msg 1039 905 \$1 10;
#X obj 1039 932 line~;
#X obj 1019 958 *~;
#X obj 1115 829 / 127;
#X obj 1115 879 *;
#X obj 1115 853 t f f;
#X msg 1115 905 \$1 10;
#X obj 1115 932 line~;
#X obj 1095 958 *~;
#X obj 1197 833 / 127;
#X obj 1197 883 *;
#X obj 1197 857 t f f;
#X msg 1197 909 \$1 10;
#X obj 1197 936 line~;
#X obj 1177 962 *~;
#X obj 1282 830 / 127;
#X obj 1282 880 *;
#X obj 1282 854 t f f;
#X msg 1282 906 \$1 10;
#X obj 1282 933 line~;
#X obj 1262 959 *~;
#X obj 1353 831 / 127;
#X obj 1353 881 *;
#X obj 1353 855 t f f;
#X msg 1353 907 \$1 10;
#X obj 1353 934 line~;
#X obj 1333 961 *~;
#X obj 1429 831 / 127;
#X obj 1429 881 *;
#X obj 1429 855 t f f;
#X msg 1429 907 \$1 10;
#X obj 1429 934 line~;
#X obj 1409 960 *~;
#X obj 1261 805 bp~ 1380 5;
#X obj 1323 807 bp~ 3160 5;
#X obj 1407 806 bp~ 6380 5;
#X floatatom 299 840 5 0 0 0 - - -;
#X obj 300 106 arduino;
#X msg 134 10 devices;
#X obj 369 141 print arduino:;
#X obj 279 150 route analog;
#X msg 248 12 pinMode 14 analog;
#X obj 277 182 route 0;
#X floatatom 275 217 6 0 0 0 - - -;
#X floatatom 735 329 6 0 0 0 - - -;
#X obj 343 237 inv;
#X floatatom 410 327 6 0 0 0 - - -;
#X obj 1148 46 playback_audio;
#X text 804 577 comment;
#X msg 193 11 open 6;
#X obj 448 276 - 1;
#X obj 588 260 pow 3.5;
#X connect 0 0 29 0;
#X connect 0 0 64 0;
#X connect 0 0 109 0;
#X connect 1 0 33 0;
#X connect 1 0 70 0;
#X connect 2 0 37 0;
#X connect 2 0 76 0;
#X connect 3 0 41 0;
#X connect 3 0 82 0;
#X connect 4 0 45 0;
#X connect 4 0 88 0;
#X connect 5 0 49 0;
#X connect 5 0 94 0;
#X connect 6 0 14 0;
#X connect 7 0 11 0;
#X connect 8 0 7 0;
#X connect 9 0 53 0;
#X connect 9 0 100 0;
#X connect 10 0 21 1;
#X connect 11 0 13 0;
#X connect 11 1 12 0;
#X connect 14 1 22 0;
#X connect 15 0 22 0;
#X connect 15 1 23 0;
#X connect 16 0 23 0;
#X connect 16 1 24 0;
#X connect 17 0 24 0;
#X connect 17 1 25 0;
#X connect 18 0 25 0;
#X connect 18 1 26 0;
#X connect 19 0 26 0;
#X connect 19 1 27 0;
#X connect 20 0 27 0;
#X connect 20 1 28 0;
#X connect 21 0 28 0;
#X connect 22 0 0 0;
#X connect 22 0 14 1;
#X connect 22 0 15 0;
#X connect 23 0 1 0;
#X connect 23 0 15 1;
#X connect 23 0 16 0;
#X connect 24 0 2 0;
#X connect 24 0 16 1;
#X connect 24 0 17 0;
#X connect 25 0 3 0;
#X connect 25 0 17 1;
#X connect 25 0 18 0;
#X connect 26 0 4 0;
#X connect 26 0 18 1;
#X connect 26 0 19 0;
#X connect 27 0 5 0;
#X connect 27 0 19 1;
#X connect 27 0 20 0;
#X connect 28 0 9 0;
#X connect 28 0 20 1;
#X connect 28 0 21 0;
#X connect 29 0 31 0;
#X connect 30 0 32 0;
#X connect 31 0 30 0;
#X connect 32 0 57 0;
#X connect 33 0 35 0;
#X connect 34 0 36 0;
#X connect 35 0 34 0;
#X connect 36 0 57 0;
#X connect 37 0 39 0;
#X connect 38 0 40 0;
#X connect 39 0 38 0;
#X connect 40 0 57 0;
#X connect 40 0 58 0;
#X connect 41 0 43 0;
#X connect 42 0 44 0;
#X connect 43 0 42 0;
#X connect 44 0 57 0;
#X connect 44 0 58 0;
#X connect 45 0 47 0;
#X connect 46 0 48 0;
#X connect 47 0 46 0;
#X connect 48 0 57 0;
#X connect 48 0 58 0;
#X connect 49 0 51 0;
#X connect 50 0 52 0;
#X connect 51 0 50 0;
#X connect 52 0 58 0;
#X connect 53 0 55 0;
#X connect 54 0 56 0;
#X connect 55 0 54 0;
#X connect 56 0 58 0;
#X connect 60 0 69 0;
#X connect 61 0 75 0;
#X connect 62 0 81 0;
#X connect 63 0 87 0;
#X connect 64 0 66 0;
#X connect 65 0 67 0;
#X connect 66 0 65 0;
#X connect 66 1 65 1;
#X connect 67 0 68 0;
#X connect 68 0 69 1;
#X connect 69 0 59 0;
#X connect 69 0 59 1;
#X connect 70 0 72 0;
#X connect 71 0 73 0;
#X connect 72 0 71 0;
#X connect 72 1 71 1;
#X connect 73 0 74 0;
#X connect 74 0 75 1;
#X connect 75 0 59 0;
#X connect 75 0 59 1;
#X connect 76 0 78 0;
#X connect 77 0 79 0;
#X connect 78 0 77 0;
#X connect 78 1 77 1;
#X connect 79 0 80 0;
#X connect 80 0 81 1;
#X connect 81 0 59 1;
#X connect 81 0 59 0;
#X connect 82 0 84 0;
#X connect 83 0 85 0;
#X connect 84 0 83 0;
#X connect 84 1 83 1;
#X connect 85 0 86 0;
#X connect 86 0 87 1;
#X connect 87 0 59 1;
#X connect 87 0 59 0;
#X connect 88 0 90 0;
#X connect 89 0 91 0;
#X connect 90 0 89 0;
#X connect 90 1 89 1;
#X connect 91 0 92 0;
#X connect 92 0 93 1;
#X connect 93 0 59 0;
#X connect 93 0 59 1;
#X connect 94 0 96 0;
#X connect 95 0 97 0;
#X connect 96 0 95 0;
#X connect 96 1 95 1;
#X connect 97 0 98 0;
#X connect 98 0 99 1;
#X connect 99 0 59 1;
#X connect 99 0 59 0;
#X connect 100 0 102 0;
#X connect 101 0 103 0;
#X connect 102 0 101 0;
#X connect 102 1 101 1;
#X connect 103 0 104 0;
#X connect 104 0 105 1;
#X connect 105 0 59 1;
#X connect 105 0 59 0;
#X connect 106 0 93 0;
#X connect 107 0 99 0;
#X connect 108 0 105 0;
#X connect 110 0 112 0;
#X connect 110 0 113 0;
#X connect 111 0 110 0;
#X connect 113 0 115 0;
#X connect 114 0 110 0;
#X connect 115 0 116 0;
#X connect 116 0 118 0;
#X connect 118 0 123 0;
#X connect 120 0 60 0;
#X connect 120 0 61 0;
#X connect 120 0 62 0;
#X connect 120 0 63 0;
#X connect 120 0 106 0;
#X connect 120 0 107 0;
#X connect 120 0 108 0;
#X connect 122 0 110 0;
#X connect 123 0 119 0;
#X connect 123 0 124 0;
#X connect 124 0 6 0;
#X connect 124 0 117 0;
