#N canvas 0 0 1588 817 12;
#X declare -lib zexy;
#X declare -path /extra/zexy;
#X obj -62 329 vsl 15 128 0 127 0 0 empty empty empty 0 -8 0 8 -262144
-1 -1 0 1;
#X obj -16 329 vsl 15 128 0 127 0 0 empty empty empty 0 -8 0 8 -262144
-1 -1 0 1;
#X obj 688 75 arduino;
#X msg 619 31 devices;
#X obj 688 134 route analog;
#X msg 786 -102 pinMode 14 analog;
#X floatatom -62 235 6 0 0 0 - - -;
#X floatatom -62 294 6 0 0 0 - - -;
#X obj 753 106 print [arduino];
#X obj 361 330 vsl 15 128 0 127 0 0 empty empty empty 0 -8 0 8 -262144
-1 -1 0 1;
#X obj 407 330 vsl 15 128 0 127 0 0 empty empty empty 0 -8 0 8 -262144
-1 -1 0 1;
#X obj 788 329 vsl 15 128 0 127 0 0 empty empty empty 0 -8 0 8 -262144
-1 -1 0 1;
#X obj 834 329 vsl 15 128 0 127 0 0 empty empty empty 0 -8 0 8 -262144
-1 -1 0 1;
#X floatatom 361 236 6 0 0 0 - - -;
#X floatatom 361 295 6 0 0 0 - - -;
#X floatatom 788 235 6 0 0 0 - - -;
#X floatatom 788 294 6 0 0 0 - - -;
#X obj -204 722 sample-loader;
#X obj 464 94 bng 15 250 50 0 empty empty empty 17 7 0 10 -262144 -1
-1;
#X obj 219 723 sample-loader;
#X obj 646 722 sample-loader;
#X text 485 95 START;
#X obj 464 120 s start;
#X obj -204 696 r start;
#X obj 219 697 r start;
#X obj 646 696 r start;
#X obj 988 329 vsl 15 128 0 127 0 0 empty empty empty 0 -8 0 8 -262144
-1 -1 0 1;
#X floatatom 988 235 6 0 0 0 - - -;
#X floatatom 988 294 6 0 0 0 - - -;
#X obj 988 473 springs;
#X obj 1008 575 mtof;
#X obj 1008 624 line;
#X msg 1008 600 \$1 15;
#X obj 561 99 output~;
#X obj 1011 519 * 127;
#X obj 1034 329 vsl 15 128 0 127 0 0 empty empty empty 0 -8 0 8 -262144
-1 -1 0 1;
#X obj 1148 329 vsl 15 128 0 127 0 0 empty empty empty 0 -8 0 8 -262144
-1 -1 0 1;
#X floatatom 1148 235 6 0 0 0 - - -;
#X floatatom 1148 294 6 0 0 0 - - -;
#X obj 1148 473 springs;
#X obj 1171 597 mtof;
#X obj 1171 646 line;
#X msg 1171 622 \$1 15;
#X obj 1172 517 * 127;
#X obj 1194 329 vsl 15 128 0 127 0 0 empty empty empty 0 -8 0 8 -262144
-1 -1 0 1;
#X obj 1071 570 loadbang;
#X msg 1071 595 100;
#X obj 1008 650 add-synth-rand;
#X obj 1071 546 bng 15 250 50 0 empty empty empty 17 7 0 10 -262144
-1 -1;
#X obj 1308 329 vsl 15 128 0 127 0 0 empty empty empty 0 -8 0 8 -262144
-1 -1 0 1;
#X floatatom 1308 235 6 0 0 0 - - -;
#X floatatom 1308 294 6 0 0 0 - - -;
#X obj 1308 473 springs;
#X obj 1354 329 vsl 15 128 0 127 0 0 empty empty empty 0 -8 0 8 -262144
-1 -1 0 1;
#X floatatom 1277 522 5 0 0 0 - - -;
#X floatatom 1277 649 5 0 0 0 - - -;
#X obj 41 88 bng 15 250 50 0 empty empty empty 17 7 0 10 -262144 -1
-1;
#X obj 41 118 s set1;
#X text 62 86 SET 1;
#X obj 116 91 bng 15 250 50 0 empty empty empty 17 7 0 10 -262144 -1
-1;
#X obj 184 90 bng 15 250 50 0 empty empty empty 17 7 0 10 -262144 -1
-1;
#X obj 254 88 bng 15 250 50 0 empty empty empty 17 7 0 10 -262144 -1
-1;
#X obj 324 89 bng 15 250 50 0 empty empty empty 17 7 0 10 -262144 -1
-1;
#X text 138 87 SET 2;
#X obj 116 121 s set2;
#X text 205 87 SET 3;
#X obj 184 120 s set3;
#X text 274 86 SET 4;
#X obj 253 118 s set4;
#X text 344 87 SET 5;
#X obj 323 119 s set5;
#X msg -377 331 symbol samples/cello/a/*.wav;
#X obj -378 301 r set1;
#X obj -377 362 r set2;
#X obj -377 425 r set3;
#X obj -375 491 r set4;
#X obj -377 551 r set5;
#X msg -377 392 symbol samples/cello2/a/*.wav;
#X msg -377 455 symbol samples/ambience/a/*.wav;
#X msg -377 517 symbol samples/rythm/a/*.wav;
#X msg -377 578 symbol samples/combo/a/*.wav;
#X obj 106 319 r set1;
#X obj 107 380 r set2;
#X obj 107 443 r set3;
#X obj 109 509 r set4;
#X obj 107 569 r set5;
#X msg 107 349 symbol samples/cello/b/*.wav;
#X msg 107 410 symbol samples/cello2/b/*.wav;
#X msg 107 473 symbol samples/ambience/b/*.wav;
#X msg 107 535 symbol samples/rythm/b/*.wav;
#X msg 107 596 symbol samples/combo/b/*.wav;
#X obj 531 320 r set1;
#X obj 532 381 r set2;
#X obj 532 444 r set3;
#X obj 534 510 r set4;
#X obj 532 570 r set5;
#X msg 532 350 symbol samples/cello/c/*.wav;
#X msg 532 411 symbol samples/cello2/c/*.wav;
#X msg 532 474 symbol samples/ambience/c/*.wav;
#X msg 532 536 symbol samples/rythm/c/*.wav;
#X msg 532 597 symbol samples/combo/c/*.wav;
#X obj 688 169 route 0 1 2 3 4 5;
#X msg 786 -72 pinMode 15 analog;
#X msg 785 -41 pinMode 16 analog;
#X msg 785 -12 pinMode 17 analog;
#X msg 786 18 pinMode 18 analog;
#X msg 787 47 pinMode 19 analog;
#X obj 788 265 expr ($f1 - 0.28) * (-1000);
#X obj 361 265 expr ($f1 - 0.62) * (-1370);
#X msg 688 31 open 9;
#X obj 988 263 expr ($f1 - 0.692) * (-1550);
#X obj 1147 265 expr ($f1 - 0.29) * (-2000);
#X obj 937 549 + 20;
#X obj 1277 547 * -1;
#X obj 1367 568 + 1;
#X obj 1277 598 * 150;
#X obj 1277 623 + 50;
#X obj 1140 552 + 20;
#X obj 361 474 springs_Sampler;
#X obj 788 473 springs_Sampler;
#X obj -62 472 springs_Sampler;
#X obj 1308 264 expr ($f1 - 0.74) * (-800);
#X obj 355 -70 outputStage_mco;
#X obj 749 753 player;
#X obj 914 708 catch~ sumleft;
#X obj 1041 709 catch~ sumright;
#X obj 911 764 s~ left;
#X obj 1077 772 s~ right;
#X obj 1182 711 catch~ sum;
#X obj 1175 764 s~ synleft;
#X obj 1271 763 s~ synright;
#X obj 1171 672 add-synth-rand;
#X obj 795 843 player;
#X obj 779 813 player;
#X obj -55 843 player;
#X obj -71 813 player;
#X obj -86 783 player;
#X obj -101 753 player;
#X obj 368 844 player;
#X obj 352 814 player;
#X obj 337 784 player;
#X obj 322 754 player;
#X obj 764 783 player;
#X obj -64 264 expr ($f1 - 0.65) * (-1370);
#X text 4 -27 String Samper 1 für samplewechsel Statt Lautstärke
einen LP Filter nutzen;
#X connect 0 0 120 0;
#X connect 0 0 1 0;
#X connect 1 0 120 1;
#X connect 2 0 4 0;
#X connect 2 0 8 0;
#X connect 3 0 2 0;
#X connect 4 0 101 0;
#X connect 5 0 2 0;
#X connect 6 0 143 0;
#X connect 7 0 0 0;
#X connect 9 0 10 0;
#X connect 9 0 118 0;
#X connect 10 0 118 1;
#X connect 11 0 119 0;
#X connect 11 0 12 0;
#X connect 12 0 119 1;
#X connect 13 0 108 0;
#X connect 14 0 9 0;
#X connect 15 0 107 0;
#X connect 16 0 11 0;
#X connect 17 0 134 0;
#X connect 17 1 135 0;
#X connect 17 2 136 0;
#X connect 17 3 137 0;
#X connect 18 0 22 0;
#X connect 19 0 138 0;
#X connect 19 1 139 0;
#X connect 19 2 140 0;
#X connect 19 3 141 0;
#X connect 20 0 132 0;
#X connect 20 1 133 0;
#X connect 20 2 142 0;
#X connect 20 3 123 0;
#X connect 23 0 17 0;
#X connect 24 0 19 0;
#X connect 25 0 20 0;
#X connect 26 0 29 0;
#X connect 26 0 35 0;
#X connect 27 0 110 0;
#X connect 28 0 26 0;
#X connect 29 2 34 0;
#X connect 30 0 32 0;
#X connect 31 0 47 0;
#X connect 32 0 31 0;
#X connect 34 0 112 0;
#X connect 35 0 29 1;
#X connect 36 0 39 0;
#X connect 36 0 44 0;
#X connect 37 0 111 0;
#X connect 38 0 36 0;
#X connect 39 2 43 0;
#X connect 40 0 42 0;
#X connect 41 0 131 0;
#X connect 42 0 41 0;
#X connect 43 0 117 0;
#X connect 44 0 39 1;
#X connect 45 0 46 0;
#X connect 46 0 47 1;
#X connect 48 0 45 0;
#X connect 49 0 52 0;
#X connect 49 0 53 0;
#X connect 50 0 121 0;
#X connect 51 0 49 0;
#X connect 52 2 54 0;
#X connect 53 0 52 1;
#X connect 54 0 113 0;
#X connect 55 0 131 1;
#X connect 56 0 57 0;
#X connect 59 0 64 0;
#X connect 60 0 66 0;
#X connect 61 0 68 0;
#X connect 62 0 70 0;
#X connect 71 0 17 1;
#X connect 72 0 71 0;
#X connect 73 0 77 0;
#X connect 74 0 78 0;
#X connect 75 0 79 0;
#X connect 76 0 80 0;
#X connect 77 0 17 1;
#X connect 78 0 17 1;
#X connect 79 0 17 1;
#X connect 80 0 17 1;
#X connect 81 0 86 0;
#X connect 82 0 87 0;
#X connect 83 0 88 0;
#X connect 84 0 89 0;
#X connect 85 0 90 0;
#X connect 86 0 19 1;
#X connect 87 0 19 1;
#X connect 88 0 19 1;
#X connect 89 0 19 1;
#X connect 90 0 19 1;
#X connect 91 0 96 0;
#X connect 92 0 97 0;
#X connect 93 0 98 0;
#X connect 94 0 99 0;
#X connect 95 0 100 0;
#X connect 96 0 20 1;
#X connect 97 0 20 1;
#X connect 98 0 20 1;
#X connect 99 0 20 1;
#X connect 100 0 20 1;
#X connect 101 0 6 0;
#X connect 101 1 13 0;
#X connect 101 2 15 0;
#X connect 101 3 27 0;
#X connect 101 4 37 0;
#X connect 101 5 50 0;
#X connect 102 0 2 0;
#X connect 103 0 2 0;
#X connect 104 0 2 0;
#X connect 105 0 2 0;
#X connect 106 0 2 0;
#X connect 107 0 16 0;
#X connect 108 0 14 0;
#X connect 109 0 2 0;
#X connect 110 0 28 0;
#X connect 111 0 38 0;
#X connect 112 0 30 0;
#X connect 113 0 114 0;
#X connect 114 0 115 0;
#X connect 115 0 116 0;
#X connect 116 0 55 0;
#X connect 117 0 40 0;
#X connect 118 0 141 1;
#X connect 118 1 140 1;
#X connect 118 2 139 1;
#X connect 118 3 138 1;
#X connect 119 0 123 1;
#X connect 119 1 142 1;
#X connect 119 2 133 1;
#X connect 119 3 132 1;
#X connect 120 0 137 1;
#X connect 120 1 136 1;
#X connect 120 2 135 1;
#X connect 120 3 134 1;
#X connect 121 0 51 0;
#X connect 122 0 33 0;
#X connect 122 1 33 1;
#X connect 124 0 126 0;
#X connect 125 0 127 0;
#X connect 128 0 129 0;
#X connect 128 0 130 0;
#X connect 143 0 7 0;
