#N canvas 0 88 1280 712 12;
#X obj 379 253 vsl 15 128 0 127 0 0 empty empty empty 0 -8 0 8 -262144
-1 -1 3675 1;
#X obj 361 253 vsl 15 128 0 127 0 0 empty empty empty 0 -8 0 8 -262144
-1 -1 4200 1;
#X obj 9 35 metro 10;
#X obj 9 10 loadbang;
#X text 138 362 move the first slider ->;
#X text 570 368 <- or the last one;
#X text 268 11 This is the first exemple of physical modeling;
#X text 268 33 this is an elastic string;
#X obj 9 62 t b b;
#X obj 44 87 s \$0-link;
#X obj 9 113 s \$0-mass;
#X text 158 95 <- metronome send bangs to mass and link and gives the
general computation speed;
#X text 135 409 all the slider are "link" together with a link. slider
got a mass so they have inertial.;
#X obj 3 196 link \$0-link 0 1 1;
#X obj 151 196 link \$0-link 0 1 1;
#X obj 300 196 link \$0-link 0 1 1;
#X obj 449 196 link \$0-link 0 1 1;
#X obj 599 196 link \$0-link 0 1 1;
#X obj 747 196 link \$0-link 0 1 1;
#X obj 896 196 link \$0-link 0 1 1;
#X obj 1045 196 link \$0-link 0 1 1;
#X obj 146 172 mass \$0-mass 30;
#X obj 294 171 mass \$0-mass 30;
#X obj 444 172 mass \$0-mass 30;
#X obj 595 172 mass \$0-mass 30;
#X obj 743 171 mass \$0-mass 30;
#X obj 894 171 mass \$0-mass 30;
#X obj 1041 171 mass \$0-mass 30;
#X text 135 451 You can see the propagation of a wave \, and physical
properties of a kind of elastic string.;
#X text 160 132 masss and link has to be compute one after the other.
;
#X obj 193 495 mtof;
#X obj 193 544 line;
#X msg 193 520 \$1 15;
#X obj 273 495 mtof;
#X obj 273 544 line;
#X msg 273 520 \$1 15;
#X obj 353 495 mtof;
#X obj 353 544 line;
#X msg 353 520 \$1 15;
#X obj 433 495 mtof;
#X obj 433 544 line;
#X msg 433 520 \$1 15;
#X obj 513 495 mtof;
#X obj 513 544 line;
#X msg 513 520 \$1 15;
#X obj 593 495 mtof;
#X obj 593 544 line;
#X msg 593 520 \$1 15;
#X obj 673 495 mtof;
#X obj 673 544 line;
#X msg 673 520 \$1 15;
#X obj 193 570 add-synth;
#X obj 273 570 add-synth;
#X obj 353 570 add-synth;
#X obj 433 570 add-synth;
#X obj 513 570 add-synth;
#X obj 593 570 add-synth;
#X obj 673 570 add-synth;
#X obj 375 614 catch~ sum;
#X obj 375 653 output~;
#X obj 397 253 vsl 15 128 0 127 0 0 empty empty empty 0 -8 0 8 -262144
-1 -1 3150 1;
#X obj 415 253 vsl 15 128 0 127 0 0 empty empty empty 0 -8 0 8 -262144
-1 -1 2625 1;
#X obj 433 253 vsl 15 128 0 127 0 0 empty empty empty 0 -8 0 8 -262144
-1 -1 2100 1;
#X obj 451 253 vsl 15 128 0 127 0 0 empty empty empty 0 -8 0 8 -262144
-1 -1 1575 1;
#X obj 469 253 vsl 15 128 0 127 0 0 empty empty empty 0 -8 0 8 -262144
-1 -1 1050 1;
#X obj 487 253 vsl 15 128 0 127 0 0 empty empty empty 0 -8 0 8 -262144
-1 -1 525 1;
#X obj 505 253 vsl 15 128 0 127 0 0 empty empty empty 0 -8 0 8 -262144
-1 -1 0 1;
#X connect 0 0 30 0;
#X connect 1 0 13 0;
#X connect 2 0 8 0;
#X connect 3 0 2 0;
#X connect 8 0 10 0;
#X connect 8 1 9 0;
#X connect 13 1 21 0;
#X connect 14 0 21 0;
#X connect 14 1 22 0;
#X connect 15 0 22 0;
#X connect 15 1 23 0;
#X connect 16 0 23 0;
#X connect 16 1 24 0;
#X connect 17 0 24 0;
#X connect 17 1 25 0;
#X connect 18 0 25 0;
#X connect 18 1 26 0;
#X connect 19 0 26 0;
#X connect 19 1 27 0;
#X connect 20 0 27 0;
#X connect 21 0 0 0;
#X connect 21 0 13 1;
#X connect 21 0 14 0;
#X connect 22 0 14 1;
#X connect 22 0 15 0;
#X connect 22 0 60 0;
#X connect 23 0 15 1;
#X connect 23 0 16 0;
#X connect 23 0 61 0;
#X connect 24 0 16 1;
#X connect 24 0 17 0;
#X connect 24 0 62 0;
#X connect 25 0 17 1;
#X connect 25 0 18 0;
#X connect 25 0 63 0;
#X connect 26 0 18 1;
#X connect 26 0 19 0;
#X connect 26 0 64 0;
#X connect 27 0 19 1;
#X connect 27 0 20 0;
#X connect 27 0 65 0;
#X connect 30 0 32 0;
#X connect 31 0 51 0;
#X connect 32 0 31 0;
#X connect 33 0 35 0;
#X connect 34 0 52 0;
#X connect 35 0 34 0;
#X connect 36 0 38 0;
#X connect 37 0 53 0;
#X connect 38 0 37 0;
#X connect 39 0 41 0;
#X connect 40 0 54 0;
#X connect 41 0 40 0;
#X connect 42 0 44 0;
#X connect 43 0 55 0;
#X connect 44 0 43 0;
#X connect 45 0 47 0;
#X connect 46 0 56 0;
#X connect 47 0 46 0;
#X connect 48 0 50 0;
#X connect 49 0 57 0;
#X connect 50 0 49 0;
#X connect 58 0 59 0;
#X connect 58 0 59 1;
#X connect 60 0 33 0;
#X connect 61 0 36 0;
#X connect 62 0 39 0;
#X connect 63 0 42 0;
#X connect 64 0 45 0;
#X connect 65 0 48 0;
#X connect 66 0 20 1;
