#N canvas 1592 0 1920 995 12;
#X obj 608 463 vsl 15 128 0 127 0 0 empty empty empty 0 -8 0 8 -262144
-1 -1 497 1;
#X obj 631 462 vsl 15 128 0 127 0 0 empty empty empty 0 -8 0 8 -262144
-1 -1 849 1;
#X obj 649 462 vsl 15 128 0 127 0 0 empty empty empty 0 -8 0 8 -262144
-1 -1 1076 1;
#X obj 667 462 vsl 15 128 0 127 0 0 empty empty empty 0 -8 0 8 -262144
-1 -1 1145 1;
#X obj 685 462 vsl 15 128 0 127 0 0 empty empty empty 0 -8 0 8 -262144
-1 -1 1052 1;
#X obj 703 462 vsl 15 128 0 127 0 0 empty empty empty 0 -8 0 8 -262144
-1 -1 796 1;
#X obj 581 462 vsl 15 128 0 127 0 0 empty empty empty 0 -8 0 8 -262144
-1 -1 0 1;
#X obj 143 255 metro 10;
#X obj 143 230 loadbang;
#X obj 721 462 vsl 15 128 0 127 0 0 empty empty empty 0 -8 0 8 -262144
-1 -1 420 1;
#X obj 739 462 vsl 15 128 0 127 0 0 empty empty empty 0 -8 0 8 -262144
-1 -1 0 1;
#X obj 143 282 t b b;
#X obj 178 307 s \$0-link;
#X obj 143 333 s \$0-mass;
#X obj 237 405 link \$0-link 0 1 1;
#X obj 384 404 link \$0-link 0 1 1;
#X obj 534 405 link \$0-link 0 1 1;
#X obj 683 405 link \$0-link 0 1 1;
#X obj 833 405 link \$0-link 0 1 1;
#X obj 981 405 link \$0-link 0 1 1;
#X obj 1130 405 link \$0-link 0 1 1;
#X obj 1279 405 link \$0-link 0 1 1;
#X obj 568 341 mass \$0-mass 30;
#X obj 678 381 mass \$0-mass 30;
#X obj 829 381 mass \$0-mass 30;
#X obj 977 380 mass \$0-mass 30;
#X obj 1128 380 mass \$0-mass 30;
#X obj 683 982 dac~;
#X floatatom 311 658 5 0 0 0 - - -;
#X obj 300 106 arduino;
#X msg 134 10 devices;
#X obj 369 141 print arduino:;
#X obj 279 150 route analog;
#X msg 248 12 pinMode 14 analog;
#X obj 277 182 route 0;
#X floatatom 275 217 6 0 0 0 - - -;
#X floatatom 735 329 6 0 0 0 - - -;
#X obj 343 237 inv;
#X floatatom 322 321 6 0 0 0 - - -;
#X msg 193 11 open 6;
#X obj 471 879 playback_audio_1;
#X floatatom 479 330 6 0 0 0 - - -;
#X obj 407 272 - 3;
#X obj 408 365 mass \$0-mass 60;
#X obj 1275 380 mass \$0-mass 20;
#X obj 588 260 * 127;
#X obj 505 847 playback_audio_1;
#X obj 653 763 playback_audio_1;
#X obj 603 792 playback_audio_1;
#X obj 564 820 playback_audio_1;
#X obj 744 676 playback_audio_1;
#X obj 714 706 playback_audio_1;
#X obj 686 735 playback_audio_1;
#X text 804 577 comment;
#X connect 0 0 28 0;
#X connect 0 0 40 0;
#X connect 1 0 46 0;
#X connect 2 0 49 0;
#X connect 3 0 48 0;
#X connect 4 0 47 0;
#X connect 5 0 52 0;
#X connect 6 0 14 0;
#X connect 7 0 11 0;
#X connect 8 0 7 0;
#X connect 9 0 51 0;
#X connect 10 0 21 1;
#X connect 10 0 50 0;
#X connect 11 0 13 0;
#X connect 11 1 12 0;
#X connect 14 1 43 0;
#X connect 15 0 43 0;
#X connect 15 1 22 0;
#X connect 16 0 22 0;
#X connect 16 1 23 0;
#X connect 17 0 23 0;
#X connect 17 1 24 0;
#X connect 18 0 24 0;
#X connect 18 1 25 0;
#X connect 19 0 25 0;
#X connect 19 1 26 0;
#X connect 20 0 26 0;
#X connect 20 1 44 0;
#X connect 21 0 44 0;
#X connect 22 0 1 0;
#X connect 22 0 15 1;
#X connect 22 0 16 0;
#X connect 23 0 2 0;
#X connect 23 0 16 1;
#X connect 23 0 17 0;
#X connect 24 0 3 0;
#X connect 24 0 17 1;
#X connect 24 0 18 0;
#X connect 25 0 4 0;
#X connect 25 0 18 1;
#X connect 25 0 19 0;
#X connect 26 0 5 0;
#X connect 26 0 19 1;
#X connect 26 0 20 0;
#X connect 29 0 31 0;
#X connect 29 0 32 0;
#X connect 30 0 29 0;
#X connect 32 0 34 0;
#X connect 33 0 29 0;
#X connect 34 0 35 0;
#X connect 35 0 37 0;
#X connect 37 0 38 0;
#X connect 37 0 42 0;
#X connect 39 0 29 0;
#X connect 40 0 27 0;
#X connect 40 1 27 1;
#X connect 42 0 41 0;
#X connect 42 0 45 0;
#X connect 43 0 0 0;
#X connect 43 0 14 1;
#X connect 43 0 15 0;
#X connect 44 0 9 0;
#X connect 44 0 20 1;
#X connect 44 0 21 0;
#X connect 45 0 6 0;
#X connect 45 0 36 0;
#X connect 46 0 27 0;
#X connect 46 1 27 1;
#X connect 47 0 27 0;
#X connect 47 1 27 1;
#X connect 48 0 27 0;
#X connect 48 1 27 1;
#X connect 49 0 27 0;
#X connect 49 1 27 1;
#X connect 50 0 27 0;
#X connect 50 1 27 1;
#X connect 51 0 27 0;
#X connect 51 1 27 1;
#X connect 52 0 27 0;
#X connect 52 1 27 1;
