#N canvas 147 14 1280 752 10;
#X declare -lib zexy;
#X declare -path /extra/zexy;
#X obj -140 19 declare -lib zexy;
#X obj -140 44 declare -path /extra/zexy;
#N canvas 751 412 583 301 limitersettings 0;
#X msg 19 -5255 print;
#X msg 176 -5229 LIMIT;
#X obj 129 -5361 loadbang;
#X text 279 -5252 view actual settings;
#X text 280 -5294 set limit/holdtime/releasetime at once;
#X obj 19 -5358 inlet;
#X obj 18 -5152 outlet;
#X text 278 -5226 mode;
#X msg 175 -5295 set 96 30 140;
#X connect 0 0 6 0;
#X connect 1 0 6 0;
#X connect 2 0 1 0;
#X connect 2 0 8 0;
#X connect 5 0 0 0;
#X connect 8 0 6 0;
#X restore 241 121 pd limitersettings;
#X text 281 90 show settings;
#X msg 242 91 print;
#X obj -100 347 *~;
#X obj -100 323 z~ 64;
#X obj -100 395 hip~ 1;
#X obj -100 371 *~ 1;
#X obj 22 344 *~;
#X obj 22 320 z~ 64;
#X obj 22 393 hip~ 1;
#X obj 147 345 *~;
#X obj 147 321 z~ 64;
#X obj 147 394 hip~ 1;
#X obj 147 369 *~ 1;
#X obj 272 348 *~;
#X obj 272 324 z~ 64;
#X obj 272 397 hip~ 1;
#X obj 57 582 outlet~;
#X obj 116 581 outlet~;
#X text 260 105 comment;
#X obj -68 344 r manualgainr;
#X obj 54 342 r manualgainr;
#X obj 179 343 r manualgainr;
#X obj 304 346 r manualgainr;
#X obj 164 282 limiter~ 1 2 3 4;
#X obj -99 211 r~ left;
#X obj 147 210 r~ right;
#X obj 23 209 r~ synleft;
#X obj 274 213 r~ synright;
#X obj 22 368 *~ 0.8;
#X obj 272 372 *~ 0.8;
#X connect 2 0 26 0;
#X connect 4 0 2 0;
#X connect 5 0 8 0;
#X connect 6 0 5 0;
#X connect 7 0 19 0;
#X connect 8 0 7 0;
#X connect 9 0 31 0;
#X connect 10 0 9 0;
#X connect 11 0 19 0;
#X connect 12 0 15 0;
#X connect 13 0 12 0;
#X connect 14 0 20 0;
#X connect 15 0 14 0;
#X connect 16 0 32 0;
#X connect 17 0 16 0;
#X connect 18 0 20 0;
#X connect 22 0 8 1;
#X connect 23 0 31 1;
#X connect 24 0 15 1;
#X connect 25 0 32 1;
#X connect 26 0 5 1;
#X connect 26 0 9 1;
#X connect 26 0 12 1;
#X connect 26 0 16 1;
#X connect 27 0 6 0;
#X connect 27 0 26 0;
#X connect 28 0 13 0;
#X connect 28 0 26 2;
#X connect 29 0 10 0;
#X connect 29 0 26 1;
#X connect 30 0 17 0;
#X connect 30 0 26 3;
#X connect 31 0 11 0;
#X connect 32 0 18 0;
