#N canvas 0 0 1588 815 12;
#X obj 336 388 vsl 15 128 0 127 0 0 empty empty empty 0 -8 0 8 -262144
-1 -1 0 1;
#X obj 519 388 vsl 15 128 0 127 0 0 empty empty empty 0 -8 0 8 -262144
-1 -1 0 1;
#X obj 702 388 vsl 15 128 0 127 0 0 empty empty empty 0 -8 0 8 -262144
-1 -1 0 1;
#X obj 885 388 vsl 15 128 0 127 0 0 empty empty empty 0 -8 0 8 -262144
-1 -1 0 1;
#X obj 1068 388 vsl 15 128 0 127 0 0 empty empty empty 0 -8 0 8 -262144
-1 -1 0 1;
#X obj 1251 388 vsl 15 128 0 127 0 0 empty empty empty 0 -8 0 8 -262144
-1 -1 0 1;
#X obj 83 388 vsl 15 128 0 127 0 0 empty empty empty 0 -8 0 8 -262144
-1 -1 0 1;
#X obj 153 395 metro 10;
#X obj 153 370 loadbang;
#X obj 1434 388 vsl 15 128 0 127 0 0 empty empty empty 0 -8 0 8 -262144
-1 -1 0 1;
#X obj 1627 388 vsl 15 128 0 127 0 0 empty empty empty 0 -8 0 8 -262144
-1 -1 0 1;
#X obj 153 422 t b b;
#X obj 185 447 s \$0-link;
#X obj 153 473 s \$0-mass;
#X obj 123 519 link \$0-link 0 1 1;
#X obj 366 283 link \$0-link 0 1 1;
#X obj 549 283 link \$0-link 0 1 1;
#X obj 732 283 link \$0-link 0 1 1;
#X obj 915 283 link \$0-link 0 1 1;
#X obj 1098 283 link \$0-link 0 1 1;
#X obj 1281 283 link \$0-link 0 1 1;
#X obj 1464 283 link \$0-link 0 1 1;
#X obj 702 355 mass \$0-mass 30;
#X obj 885 355 mass \$0-mass 30;
#X obj 1068 355 mass \$0-mass 30;
#X obj 1251 355 mass \$0-mass 30;
#X obj 83 54 arduino;
#X msg 14 10 devices;
#X obj 83 113 route analog;
#X floatatom 153 215 6 0 0 0 - - -;
#X floatatom 153 340 6 0 0 0 - - -;
#X obj 83 225 inv;
#X floatatom 153 256 6 0 0 0 - - -;
#X floatatom 153 297 6 0 0 0 - - -;
#X obj 83 266 - 3;
#X obj 1434 354 mass \$0-mass 20;
#X obj 83 311 * 127;
#X obj 336 355 mass \$0-mass 30;
#X obj 519 355 mass \$0-mass 30;
#X obj 103 586 bng 15 250 50 0 empty empty empty 17 7 0 10 -262144
-1 -1;
#X text 123 584 load samples;
#X obj 465 61 pddp/dsp;
#X obj 65 773 unpack s s s s s s s s s s;
#X symbolatom 65 1077 10 0 0 0 - - -;
#X symbolatom 244 807 10 0 0 0 - - -;
#X symbolatom 224 837 10 0 0 0 - - -;
#X symbolatom 204 867 10 0 0 0 - - -;
#X symbolatom 184 897 10 0 0 0 - - -;
#X symbolatom 164 927 10 0 0 0 - - -;
#X symbolatom 144 957 10 0 0 0 - - -;
#X symbolatom 124 987 10 0 0 0 - - -;
#X symbolatom 104 1017 10 0 0 0 - - -;
#X symbolatom 84 1047 10 0 0 0 - - -;
#X obj 110 734 t l;
#X obj 65 699 list prepend;
#X msg -91 730 - - - - - - - - - -;
#X obj 65 648 del 50;
#X obj 65 672 folder_list samples/cello/*.wav;
#X obj 297 1096 player;
#X obj 480 1066 player;
#X obj 519 524 / 127;
#X obj 336 524 / 127;
#X obj 702 524 / 127;
#X obj 885 524 / 127;
#X obj 1068 524 / 127;
#X obj 1251 524 / 127;
#X obj 1434 524 / 127;
#X obj 663 1036 player;
#X obj 846 1006 player;
#X obj 1029 976 player;
#X obj 1212 946 player;
#X obj 148 85 print [arduino];
#X msg 83 -40 open 8;
#X floatatom 216 221 6 0 0 0 - - -;
#X msg 204 -124 pinMode 14 analog;
#X msg 204 -98 pinMode 15 analog;
#X msg 767 171 pinMode 15 analog;
#X msg 204 -71 pinMode 16 analog;
#X msg 204 -43 pinMode 17 analog;
#X msg 205 -14 pinMode 18 analog;
#X msg 202 14 pinMode 19 analog;
#X obj 83 148 route 0 1 2 3 4 5;
#X floatatom 271 221 6 0 0 0 - - -;
#X floatatom 322 220 6 0 0 0 - - -;
#X floatatom 376 219 6 0 0 0 - - -;
#X floatatom 432 219 6 0 0 0 - - -;
#X connect 0 0 61 0;
#X connect 1 0 60 0;
#X connect 2 0 62 0;
#X connect 3 0 63 0;
#X connect 4 0 64 0;
#X connect 5 0 65 0;
#X connect 6 0 14 0;
#X connect 7 0 11 0;
#X connect 8 0 7 0;
#X connect 9 0 66 0;
#X connect 10 0 21 1;
#X connect 11 0 13 0;
#X connect 11 1 12 0;
#X connect 14 1 37 0;
#X connect 15 0 37 0;
#X connect 15 1 38 0;
#X connect 16 0 38 0;
#X connect 16 1 22 0;
#X connect 17 0 22 0;
#X connect 17 1 23 0;
#X connect 18 0 23 0;
#X connect 18 1 24 0;
#X connect 19 0 24 0;
#X connect 19 1 25 0;
#X connect 20 0 25 0;
#X connect 20 1 35 0;
#X connect 21 0 35 0;
#X connect 22 0 2 0;
#X connect 22 0 16 1;
#X connect 22 0 17 0;
#X connect 23 0 3 0;
#X connect 23 0 17 1;
#X connect 23 0 18 0;
#X connect 24 0 4 0;
#X connect 24 0 18 1;
#X connect 24 0 19 0;
#X connect 25 0 5 0;
#X connect 25 0 19 1;
#X connect 25 0 20 0;
#X connect 26 0 28 0;
#X connect 26 0 71 0;
#X connect 27 0 26 0;
#X connect 28 0 81 0;
#X connect 31 0 32 0;
#X connect 31 0 34 0;
#X connect 34 0 33 0;
#X connect 34 0 36 0;
#X connect 35 0 9 0;
#X connect 35 0 20 1;
#X connect 35 0 21 0;
#X connect 36 0 30 0;
#X connect 36 0 6 0;
#X connect 37 0 0 0;
#X connect 37 0 14 1;
#X connect 37 0 15 0;
#X connect 38 0 1 0;
#X connect 38 0 15 1;
#X connect 38 0 16 0;
#X connect 39 0 55 0;
#X connect 39 0 56 0;
#X connect 39 0 54 1;
#X connect 42 0 43 0;
#X connect 42 1 52 0;
#X connect 42 2 51 0;
#X connect 42 3 50 0;
#X connect 42 4 49 0;
#X connect 42 5 48 0;
#X connect 42 6 47 0;
#X connect 42 7 46 0;
#X connect 42 8 45 0;
#X connect 42 9 44 0;
#X connect 43 0 58 0;
#X connect 48 0 70 0;
#X connect 49 0 69 0;
#X connect 50 0 68 0;
#X connect 51 0 67 0;
#X connect 52 0 59 0;
#X connect 53 0 54 1;
#X connect 54 0 53 0;
#X connect 54 0 42 0;
#X connect 55 0 42 0;
#X connect 56 0 57 0;
#X connect 57 0 54 0;
#X connect 60 0 59 1;
#X connect 61 0 58 1;
#X connect 62 0 67 1;
#X connect 63 0 68 1;
#X connect 64 0 69 1;
#X connect 65 0 70 1;
#X connect 72 0 26 0;
#X connect 74 0 26 0;
#X connect 75 0 26 0;
#X connect 77 0 26 0;
#X connect 78 0 26 0;
#X connect 79 0 26 0;
#X connect 80 0 26 0;
#X connect 81 0 29 0;
#X connect 81 0 31 0;
#X connect 81 1 73 0;
#X connect 81 2 82 0;
#X connect 81 3 83 0;
#X connect 81 4 84 0;
#X connect 81 5 85 0;
