#N canvas 2560 0 944 1021 10;
#N canvas 0 0 450 300 (subpatch) 0;
#X array channelL 192000 float 2;
#X coords 0 1 192000 -1 200 140 1;
#X restore 697 119 graph;
#N canvas 0 0 450 300 (subpatch) 0;
#X array channelR 192000 float 2;
#X coords 0 1 192000 -1 200 140 1 0 0;
#X restore 695 275 graph;
#X obj 137 60 bng 15 250 50 0 empty empty empty 17 7 0 10 -262144 -1
-1;
#X obj 138 99 openpanel;
#X msg 137 144 read -resize \$1 channelL channelR;
#X obj 137 195 soundfiler;
#X floatatom 186 251 20 0 0 0 - - -;
#X obj 182 286 s sampleSize;
#X obj 142 322 expr 44100 / $f1;
#X floatatom 183 367 20 0 0 0 - - -;
#X obj 145 435 phasor~;
#X obj 145 489 *~;
#X obj 211 464 r sampleSize;
#X obj 147 544 tabread4~ channelL;
#X obj 175 605 tabread4~ channelR;
#X obj 208 827 *~;
#X obj 135 836 *~;
#X obj 249 793 vsl 35 128 0 1 0 0 empty empty empty 0 -9 0 10 -262144
-1 -1 0 1;
#X obj 364 758 snapshot~;
#X obj 364 716 metro 50;
#X obj 363 678 tgl 15 0 empty empty empty 17 7 0 10 -262144 -1 -1 0
1;
#X floatatom 363 789 20 0 0 0 - - -;
#X obj 367 866 /;
#X floatatom 365 918 20 0 0 0 - - -;
#X obj 428 825 r sampleSize;
#X obj 697 435 hsl 195 20 0 1 0 0 empty empty empty -2 -8 0 10 -262144
-1 -1 0 1;
#X obj 358 298 hsl 195 20 0 0.3 0 0 empty empty empty -2 -8 0 10 -262144
-1 -1 1617 1;
#X floatatom 358 354 20 0 0 0 - - -;
#X msg 355 239 0.025;
#X obj 106 932 outlet~;
#X obj 17 668 inlet;
#X obj 72 725 / 127;
#X obj 168 935 outlet~;
#X connect 2 0 3 0;
#X connect 3 0 4 0;
#X connect 4 0 5 0;
#X connect 5 0 6 0;
#X connect 5 0 8 0;
#X connect 6 0 7 0;
#X connect 8 0 9 0;
#X connect 8 0 10 0;
#X connect 9 0 28 0;
#X connect 10 0 11 0;
#X connect 11 0 13 0;
#X connect 11 0 14 0;
#X connect 11 0 18 0;
#X connect 12 0 11 1;
#X connect 13 0 16 0;
#X connect 14 0 15 0;
#X connect 15 0 32 0;
#X connect 16 0 29 0;
#X connect 17 0 15 1;
#X connect 17 0 16 1;
#X connect 18 0 21 0;
#X connect 19 0 18 0;
#X connect 20 0 19 0;
#X connect 21 0 22 0;
#X connect 22 0 23 0;
#X connect 23 0 25 0;
#X connect 24 0 22 1;
#X connect 26 0 27 0;
#X connect 27 0 10 0;
#X connect 28 0 26 0;
#X connect 30 0 31 0;
#X connect 31 0 17 0;
