#N canvas 869 27 565 687 10;
#X obj 161 46 bng 15 250 50 0 empty empty empty 17 7 0 10 -262144 -1
-1;
#X obj 161 88 openpanel;
#X obj 161 196 soundfiler;
#X obj 250 74 f \$0;
#X floatatom 250 103 6 0 0 0 - - -;
#N canvas 0 0 450 300 (subpatch) 0;
#X array \$0-CH-L 731429 float 2;
#X coords 0 1 731429 -1 200 140 1;
#X restore 77 247 graph;
#N canvas 0 0 450 300 (subpatch) 0;
#X array \$0-CH-R 731429 float 2;
#X coords 0 1 731429 -1 200 140 1;
#X restore 292 247 graph;
#X obj 166 450 bng 15 250 50 0 empty empty empty 17 7 0 10 -262144
-1 -1;
#X msg 161 165 read -resize \$1 \$2-CH-L \$2-CH-R;
#X obj 161 133 pack s f;
#X obj 250 45 loadbang;
#X msg 98 449 stop;
#X obj 77 46 inlet;
#X obj 245 449 loadbang;
#X obj 166 510 tabplay~ \$0-CH-L;
#X obj 277 510 tabplay~ \$0-CH-R;
#X obj 370 534 s \$0-restart;
#X obj 166 419 r \$0-restart;
#X obj 409 69 vsl 35 128 0 1 0 0 empty empty empty 0 -9 0 10 -262144
-1 -1 0 1;
#X obj 409 39 inlet;
#X text 365 39 volume;
#X obj 409 214 s \$0-volume;
#X obj 278 582 *~;
#X obj 293 556 r \$0-volume;
#X obj 167 582 *~;
#X obj 182 556 r \$0-volume;
#X text 71 23 file name;
#X obj 164 640 throw~ sumleft;
#X obj 279 643 throw~ sumright;
#X connect 0 0 3 0;
#X connect 0 0 1 0;
#X connect 1 0 9 0;
#X connect 3 0 4 0;
#X connect 4 0 9 1;
#X connect 7 0 14 0;
#X connect 7 0 15 0;
#X connect 8 0 2 0;
#X connect 9 0 8 0;
#X connect 10 0 3 0;
#X connect 11 0 14 0;
#X connect 12 0 9 0;
#X connect 13 0 14 0;
#X connect 13 0 15 0;
#X connect 14 0 24 0;
#X connect 15 0 22 0;
#X connect 15 1 16 0;
#X connect 17 0 7 0;
#X connect 18 0 21 0;
#X connect 19 0 18 0;
#X connect 22 0 28 0;
#X connect 23 0 22 1;
#X connect 24 0 27 0;
#X connect 25 0 24 1;
