#N canvas 183 196 1388 623 10;
#X obj 231 175 vsl 15 128 0 127 0 0 empty empty empty 0 -8 0 8 -262144
-1 -1 0 1;
#X obj 401 175 vsl 15 128 0 127 0 0 empty empty empty 0 -8 0 8 -262144
-1 -1 0 1;
#X obj 571 175 vsl 15 128 0 127 0 0 empty empty empty 0 -8 0 8 -262144
-1 -1 0 1;
#X obj 741 175 vsl 15 128 0 127 0 0 empty empty empty 0 -8 0 8 -262144
-1 -1 0 1;
#X obj 48 157 loadbang;
#X obj 48 209 t b b;
#X obj 80 234 s \$0-link;
#X obj 48 260 s \$0-mass;
#X obj 18 306 link \$0-link 0 1 1;
#X obj 261 70 link \$0-link 0 1 1;
#X obj 431 70 link \$0-link 0 1 1;
#X obj 601 70 link \$0-link 0 1 1;
#X obj 771 70 link \$0-link 0 1 1;
#X obj 401 142 mass \$0-mass 30;
#X obj 401 311 / 127;
#X obj 231 311 / 127;
#X obj 571 311 / 127;
#X obj 741 311 / 127;
#X obj 231 341 outlet;
#X obj 18 15 inlet;
#X obj 401 341 outlet;
#X obj 571 341 outlet;
#X obj 741 341 outlet;
#X obj 1046 15 inlet;
#X obj 911 175 vsl 15 128 0 127 0 0 empty empty empty 0 -8 0 8 -262144
-1 -1 0 1;
#X obj 941 70 link \$0-link 0 1 1;
#X obj 911 142 mass \$0-mass 30;
#X obj 911 311 / 127;
#X obj 911 341 outlet;
#X obj 147 428 vsl 15 128 0 127 0 0 empty empty empty 0 -8 0 8 -262144
-1 -1 0 1;
#X obj 65 76 bng 15 250 50 0 empty empty empty 17 7 0 10 -262144 -1
-1;
#X obj 571 142 mass \$0-mass 30;
#X obj 741 142 mass \$0-mass 3;
#X obj 48 182 metro 3;
#X obj 231 142 mass \$0-mass 8;
#X connect 0 0 15 0;
#X connect 1 0 14 0;
#X connect 2 0 16 0;
#X connect 3 0 17 0;
#X connect 4 0 33 0;
#X connect 5 0 7 0;
#X connect 5 1 6 0;
#X connect 8 1 34 0;
#X connect 9 0 34 0;
#X connect 9 1 13 0;
#X connect 10 0 13 0;
#X connect 10 1 31 0;
#X connect 11 0 31 0;
#X connect 11 1 32 0;
#X connect 12 0 32 0;
#X connect 12 1 26 0;
#X connect 13 0 1 0;
#X connect 13 0 9 1;
#X connect 13 0 10 0;
#X connect 14 0 20 0;
#X connect 15 0 18 0;
#X connect 16 0 21 0;
#X connect 17 0 22 0;
#X connect 19 0 8 0;
#X connect 23 0 25 1;
#X connect 24 0 27 0;
#X connect 25 0 26 0;
#X connect 26 0 24 0;
#X connect 26 0 25 0;
#X connect 26 0 12 1;
#X connect 27 0 28 0;
#X connect 29 0 8 0;
#X connect 30 0 4 0;
#X connect 31 0 2 0;
#X connect 31 0 10 1;
#X connect 31 0 11 0;
#X connect 32 0 3 0;
#X connect 32 0 11 1;
#X connect 32 0 12 0;
#X connect 33 0 5 0;
#X connect 34 0 0 0;
#X connect 34 0 8 1;
#X connect 34 0 9 0;
