#N canvas 1588 0 1920 1021 12;
#X obj 228 523 vsl 15 128 0 127 0 0 empty empty empty 0 -8 0 8 -262144
-1 -1 9900 1;
#X obj 274 523 vsl 15 128 0 127 0 0 empty empty empty 0 -8 0 8 -262144
-1 -1 0 1;
#X obj 688 75 arduino;
#X msg 619 31 devices;
#X obj 688 134 route analog;
#X msg 752 31 pinMode 14 analog;
#X floatatom 224 147 6 0 0 0 - - -;
#X floatatom 228 294 6 0 0 0 - - -;
#X obj 465 61 pddp/dsp;
#X obj 235 850 player;
#X obj 219 820 player;
#X obj 204 790 player;
#X obj 189 760 player;
#X obj 753 106 print [arduino];
#X obj 228 667 springs;
#X obj 588 527 vsl 15 128 0 127 0 0 empty empty empty 0 -8 0 8 -262144
-1 -1 10700 1;
#X obj 624 527 vsl 15 128 0 127 0 0 empty empty empty 0 -8 0 8 -262144
-1 -1 0 1;
#X obj 578 671 springs;
#X obj 929 539 vsl 15 128 0 127 0 0 empty empty empty 0 -8 0 8 -262144
-1 -1 11000 1;
#X obj 975 539 vsl 15 128 0 127 0 0 empty empty empty 0 -8 0 8 -262144
-1 -1 0 1;
#X obj 929 683 springs;
#X floatatom 929 251 6 0 0 0 - - -;
#X floatatom 929 310 6 0 0 0 - - -;
#X obj 929 280 expr (- \$1 - 3) * 127;
#X obj 585 854 player;
#X obj 569 824 player;
#X obj 554 794 player;
#X obj 539 764 player;
#X obj 936 866 player;
#X obj 920 836 player;
#X obj 905 806 player;
#X obj 890 776 player;
#X obj 688 169 route 0 1 3 4 5;
#X obj 86 729 sample-loader;
#X obj 464 94 bng 15 250 50 0 empty empty empty 17 7 0 10 -262144 -1
-1;
#X text 485 95 START;
#X obj 464 120 s start;
#X obj 86 703 r start;
#X obj 436 707 r start;
#X obj 787 719 r start;
#X msg 688 31 open 8;
#X obj 226 200 inv;
#X floatatom 108 277 6 0 0 0 - - -;
#X floatatom 75 217 6 0 0 0 - - -;
#X obj 227 241 - 3.35;
#X obj 268 255 * 52;
#X msg 895 33 pinMode 15 analog;
#X floatatom 532 138 6 0 0 0 - - -;
#X floatatom 606 289 6 0 0 0 - - -;
#X obj 604 195 inv;
#X floatatom 477 224 6 0 0 0 - - -;
#X floatatom 498 264 6 0 0 0 - - -;
#X obj 604 236 - 1.5;
#X obj 646 249 * 400;
#X obj 436 733 sample-loader;
#X obj 787 745 sample-loader;
#X obj -40 30 bng 15 250 50 0 empty empty empty 17 7 0 10 -262144 -1
-1;
#X msg -23 363 symbol samples/cello/a/*.wav;
#X obj -24 333 r set1;
#X obj -23 394 r set2;
#X obj -23 457 r set3;
#X obj -21 523 r set4;
#X obj -23 583 r set5;
#X msg -23 424 symbol samples/cello2/a/*.wav;
#X msg -23 487 symbol samples/ambience/a/*.wav;
#X msg -23 549 symbol samples/rythm/a/*.wav;
#X msg -23 610 symbol samples/combo/a/*.wav;
#X obj -41 60 s set1;
#X text -20 28 SET 1;
#X obj 311 335 r set1;
#X obj 312 396 r set2;
#X obj 312 459 r set3;
#X obj 314 525 r set4;
#X obj 312 585 r set5;
#X msg 312 365 symbol samples/cello/b/*.wav;
#X msg 312 426 symbol samples/cello2/b/*.wav;
#X msg 312 489 symbol samples/ambience/b/*.wav;
#X msg 312 551 symbol samples/rythm/b/*.wav;
#X msg 312 612 symbol samples/combo/b/*.wav;
#X obj 666 346 r set1;
#X obj 667 407 r set2;
#X obj 667 470 r set3;
#X obj 669 536 r set4;
#X obj 667 596 r set5;
#X msg 667 376 symbol samples/cello/c/*.wav;
#X msg 667 437 symbol samples/cello2/c/*.wav;
#X msg 667 500 symbol samples/ambience/c/*.wav;
#X msg 667 562 symbol samples/rythm/c/*.wav;
#X msg 667 623 symbol samples/combo/c/*.wav;
#X obj 34 33 bng 15 250 50 0 empty empty empty 17 7 0 10 -262144 -1
-1;
#X obj 102 32 bng 15 250 50 0 empty empty empty 17 7 0 10 -262144 -1
-1;
#X obj 172 30 bng 15 250 50 0 empty empty empty 17 7 0 10 -262144 -1
-1;
#X obj 242 31 bng 15 250 50 0 empty empty empty 17 7 0 10 -262144 -1
-1;
#X text 56 29 SET 2;
#X obj 34 63 s set2;
#X text 123 29 SET 3;
#X obj 102 62 s set3;
#X text 192 28 SET 4;
#X obj 171 60 s set4;
#X text 262 29 SET 5;
#X obj 241 61 s set5;
#X connect 0 0 14 0;
#X connect 1 0 14 1;
#X connect 2 0 4 0;
#X connect 2 0 13 0;
#X connect 3 0 2 0;
#X connect 4 0 32 0;
#X connect 5 0 2 0;
#X connect 6 0 41 0;
#X connect 7 0 0 0;
#X connect 14 0 12 1;
#X connect 14 1 11 1;
#X connect 14 2 10 1;
#X connect 14 3 9 1;
#X connect 15 0 17 0;
#X connect 16 0 17 1;
#X connect 17 0 27 1;
#X connect 17 1 26 1;
#X connect 17 2 25 1;
#X connect 17 3 24 1;
#X connect 18 0 20 0;
#X connect 19 0 20 1;
#X connect 20 0 31 1;
#X connect 20 1 30 1;
#X connect 20 2 29 1;
#X connect 20 3 28 1;
#X connect 21 0 23 0;
#X connect 22 0 18 0;
#X connect 23 0 22 0;
#X connect 32 0 6 0;
#X connect 32 1 47 0;
#X connect 32 2 21 0;
#X connect 33 0 9 0;
#X connect 33 1 10 0;
#X connect 33 2 11 0;
#X connect 33 3 12 0;
#X connect 34 0 36 0;
#X connect 37 0 33 0;
#X connect 38 0 54 0;
#X connect 39 0 55 0;
#X connect 40 0 2 0;
#X connect 41 0 43 0;
#X connect 41 0 44 0;
#X connect 44 0 42 0;
#X connect 44 0 45 0;
#X connect 45 0 7 0;
#X connect 46 0 2 0;
#X connect 47 0 49 0;
#X connect 48 0 15 0;
#X connect 49 0 50 0;
#X connect 49 0 52 0;
#X connect 52 0 51 0;
#X connect 52 0 53 0;
#X connect 53 0 48 0;
#X connect 54 0 24 0;
#X connect 54 1 25 0;
#X connect 54 2 26 0;
#X connect 54 3 27 0;
#X connect 55 0 28 0;
#X connect 55 1 29 0;
#X connect 55 2 30 0;
#X connect 55 3 31 0;
#X connect 56 0 67 0;
#X connect 57 0 33 1;
#X connect 58 0 57 0;
#X connect 59 0 63 0;
#X connect 60 0 64 0;
#X connect 61 0 65 0;
#X connect 62 0 66 0;
#X connect 63 0 33 1;
#X connect 64 0 33 1;
#X connect 65 0 33 1;
#X connect 66 0 33 1;
#X connect 69 0 74 0;
#X connect 70 0 75 0;
#X connect 71 0 76 0;
#X connect 72 0 77 0;
#X connect 73 0 78 0;
#X connect 74 0 54 1;
#X connect 75 0 54 1;
#X connect 76 0 54 1;
#X connect 77 0 54 1;
#X connect 78 0 54 1;
#X connect 79 0 84 0;
#X connect 80 0 85 0;
#X connect 81 0 86 0;
#X connect 82 0 87 0;
#X connect 83 0 88 0;
#X connect 84 0 55 1;
#X connect 85 0 55 1;
#X connect 86 0 55 1;
#X connect 87 0 55 1;
#X connect 88 0 55 1;
#X connect 89 0 94 0;
#X connect 90 0 96 0;
#X connect 91 0 98 0;
#X connect 92 0 100 0;
