#N canvas 229 203 967 620 12;
#X obj 672 220 s frequency;
#X obj 402 290 s duration;
#X floatatom 402 240 0 0 0 0 - - -;
#X obj 402 265 * 100;
#X floatatom 672 190 0 0 0 0 - - -;
#X text 82 7 ADDITIVE SYNTHESIS;
#X text 440 230 duration in tenths;
#X text 442 246 of a second;
#X text 732 189 pitch;
#X text 433 518 updated for Pd version 0.37;
#X text 26 83 Partial takes as arguments an amplitude \, a relative
frequency \, a detuning frequency \, and a relative duration. You set
absolute duration and pitch using the controls below. Hit the trigger
to make sound.;
#X obj 36 164 partial 1 1 0.56 0;
#X text 27 31 This patch demonstrates using an abstraction \, "partial"
\, to make a simple additive synthesis instrument originally from Jean-Claude
Risset.;
#X obj 349 169 loadbang;
#X msg 402 210 40;
#X obj 382 326 bng 25 250 50 0 empty empty empty 0 -6 0 8 -262144 -1
-1;
#X text 415 334 <-- click to play a note;
#X obj 382 368 s trigger;
#X obj 36 189 partial 0.67 0.9 0.56 1;
#X obj 36 214 partial 1 0.65 0.92 0;
#X obj 36 239 partial 1.8 0.55 0.92 1.7;
#X obj 36 264 partial 2.67 0.325 1.19 0;
#X obj 36 289 partial 1.67 0.35 1.7 0;
#X obj 36 314 partial 1.46 0.25 2 0;
#X obj 36 339 partial 1.33 0.2 2.74 0;
#X obj 36 364 partial 1.33 0.15 3 0;
#X obj 36 389 partial 1 0.1 3.76 0;
#X obj 36 414 partial 1.33 0.075 4.07 0;
#X obj 672 158 inlet;
#X obj 298 330 metro 100;
#X connect 2 0 3 0;
#X connect 3 0 1 0;
#X connect 4 0 0 0;
#X connect 13 0 14 0;
#X connect 13 0 29 0;
#X connect 14 0 2 0;
#X connect 15 0 17 0;
#X connect 28 0 4 0;
#X connect 29 0 17 0;
