#N canvas 337 214 327 556 12;
#X floatatom 107 186 0 0 0 0 - - -;
#X obj 107 211 * 100;
#X floatatom 66 123 0 0 0 0 - - -;
#X text 145 176 duration in tenths;
#X text 147 192 of a second;
#X text 126 122 pitch;
#X obj 26 19 loadbang;
#X msg 107 156 40;
#X obj 66 91 inlet;
#X obj 26 240 partial-rand;
#X obj 26 270 partial-rand;
#X obj 26 300 partial-rand;
#X obj 26 330 partial-rand;
#X obj 26 360 partial-rand;
#X obj 26 390 partial-rand;
#X obj 26 420 partial-rand;
#X obj 26 450 partial-rand;
#X obj 26 480 partial-rand;
#X obj 26 510 partial-rand;
#X obj 150 19 inlet;
#X obj 26 54 metro 100;
#X floatatom 149 56 5 0 0 0 - - -;
#X connect 0 0 1 0;
#X connect 1 0 9 2;
#X connect 2 0 9 1;
#X connect 6 0 7 0;
#X connect 6 0 20 0;
#X connect 7 0 0 0;
#X connect 8 0 2 0;
#X connect 9 0 10 0;
#X connect 9 1 10 1;
#X connect 9 2 10 2;
#X connect 10 0 11 0;
#X connect 10 1 11 1;
#X connect 10 2 11 2;
#X connect 11 0 12 0;
#X connect 11 1 12 1;
#X connect 11 2 12 2;
#X connect 12 0 13 0;
#X connect 12 1 13 1;
#X connect 12 2 13 2;
#X connect 13 0 14 0;
#X connect 13 1 14 1;
#X connect 13 2 14 2;
#X connect 14 0 15 0;
#X connect 14 1 15 1;
#X connect 14 2 15 2;
#X connect 15 0 16 0;
#X connect 15 1 16 1;
#X connect 15 2 16 2;
#X connect 16 0 17 0;
#X connect 16 1 17 1;
#X connect 16 2 17 2;
#X connect 17 0 18 0;
#X connect 17 1 18 1;
#X connect 17 2 18 2;
#X connect 19 0 21 0;
#X connect 20 0 9 0;
#X connect 21 0 20 1;
