#N canvas 2064 476 858 584 12;
#X obj 485 284 sqrt;
#X text 53 225 relative frequency;
#X obj 37 391 *~;
#X obj 247 372 line~;
#X obj 247 399 *~;
#X obj 247 426 *~;
#X msg 247 335 0 \$1;
#X obj 485 311 sqrt;
#X obj 485 230 float \$1;
#X obj 247 208 t b b;
#X text 323 259 relative duration;
#X obj 37 418 throw~ sum;
#X obj 37 190 bng 15 250 50 0 empty empty empty 0 -6 0 8 -262144 -1
-1;
#X msg 485 338 \$1 5;
#X obj 247 235 del 5;
#X obj 485 257 * 0.1;
#X obj 37 329 + \$4;
#X text 570 228 get amplitude from argument 1;
#X text 544 256 normalize to 0.1;
#X text 536 283 take fourth root (square root twice);
#X text 564 300 because we'll raise line~ output to;
#X text 563 317 fourth power;
#X text 535 342 attack time 5 msec;
#X text 300 234 decay after 5 msec;
#X text 489 207 attack;
#X obj 246 261 float \$2;
#X obj 247 308 *;
#X text 284 308 actual duration;
#X obj 37 250 float \$3;
#X obj 37 302 *;
#X obj 37 364 osc~;
#X text 69 302 times global freq.;
#X text 80 329 plus detune;
#X text 291 335 decay msg to line~;
#X text 286 400 raise to fourth power for;
#X text 287 418 natural-sounding decay shape;
#X text 40 446 add to global;
#X text 39 465 summing bus;
#X text 25 4 partial -- sinusoidal partial for additive synthesis;
#X floatatom 258 138 5 0 0 0 - - -;
#X obj 258 113 / 100;
#X obj 385 32 loadbang;
#X floatatom 348 138 5 0 0 0 - - -;
#X obj 348 113 / 100;
#X floatatom 438 138 5 0 0 0 - - -;
#X obj 438 113 / 100;
#X floatatom 528 138 5 0 0 0 - - -;
#X obj 528 113 / 100;
#X obj 348 87 random 500;
#X obj 528 87 random 300;
#X obj 258 87 random 100;
#X obj 438 87 random 200;
#X obj 87 52 inlet;
#X obj 137 52 inlet;
#X obj 37 52 inlet;
#X obj -27 137 outlet;
#X obj 93 137 outlet;
#X obj 193 137 outlet;
#X connect 0 0 7 0;
#X connect 2 0 11 0;
#X connect 3 0 4 0;
#X connect 3 0 4 1;
#X connect 4 0 5 0;
#X connect 4 0 5 1;
#X connect 5 0 2 1;
#X connect 6 0 3 0;
#X connect 7 0 13 0;
#X connect 8 0 15 0;
#X connect 9 0 14 0;
#X connect 9 1 8 0;
#X connect 12 0 9 0;
#X connect 12 0 28 0;
#X connect 13 0 3 0;
#X connect 14 0 25 0;
#X connect 15 0 0 0;
#X connect 16 0 30 0;
#X connect 25 0 26 0;
#X connect 26 0 6 0;
#X connect 28 0 29 0;
#X connect 29 0 16 0;
#X connect 30 0 2 0;
#X connect 39 0 28 1;
#X connect 40 0 39 0;
#X connect 41 0 48 0;
#X connect 41 0 49 0;
#X connect 41 0 50 0;
#X connect 41 0 51 0;
#X connect 42 0 16 1;
#X connect 43 0 42 0;
#X connect 44 0 25 1;
#X connect 45 0 44 0;
#X connect 46 0 8 1;
#X connect 47 0 46 0;
#X connect 48 0 43 0;
#X connect 49 0 47 0;
#X connect 50 0 40 0;
#X connect 51 0 45 0;
#X connect 52 0 29 1;
#X connect 52 0 56 0;
#X connect 53 0 26 1;
#X connect 53 0 57 0;
#X connect 54 0 12 0;
#X connect 54 0 55 0;
