#N canvas 1 88 644 604 10;
#X obj 173 52 bng 15 250 50 0 empty empty empty 17 7 0 10 -262144 -1
-1;
#X text 198 51 load samples;
#X symbolatom 140 534 10 0 0 0 - - -;
#X symbolatom 245 284 10 0 0 0 - - -;
#X symbolatom 224 334 10 0 0 0 - - -;
#X symbolatom 203 384 10 0 0 0 - - -;
#X symbolatom 182 434 10 0 0 0 - - -;
#X symbolatom 161 484 10 0 0 0 - - -;
#X obj 185 201 t l;
#X obj 140 115 del 50;
#X obj 140 139 folder_list samples/cello/*.wav;
#X obj 140 240 unpack s s s s s s;
#X msg 44 197 - - - - - -;
#X obj 140 166 list append;
#X obj 140 560 outlet;
#X obj 161 510 outlet;
#X obj 182 460 outlet;
#X obj 203 410 outlet;
#X obj 224 360 outlet;
#X obj 245 310 outlet;
#X obj 173 12 inlet;
#X obj 323 12 inlet;
#X connect 0 0 12 0;
#X connect 0 0 9 0;
#X connect 0 0 13 1;
#X connect 2 0 14 0;
#X connect 3 0 19 0;
#X connect 4 0 18 0;
#X connect 5 0 17 0;
#X connect 6 0 16 0;
#X connect 7 0 15 0;
#X connect 8 0 13 1;
#X connect 9 0 10 0;
#X connect 10 0 13 0;
#X connect 11 0 2 0;
#X connect 11 1 7 0;
#X connect 11 2 6 0;
#X connect 11 3 5 0;
#X connect 11 4 4 0;
#X connect 11 5 3 0;
#X connect 12 0 11 0;
#X connect 13 0 8 0;
#X connect 13 0 11 0;
#X connect 20 0 0 0;
#X connect 21 0 10 1;
