#N canvas 97 96 1388 623 10;
#X obj 231 175 vsl 15 128 0 127 0 0 empty empty empty 0 -8 0 8 -262144
-1 -1 0 1;
#X obj 401 175 vsl 15 128 0 127 0 0 empty empty empty 0 -8 0 8 -262144
-1 -1 0 1;
#X obj 571 175 vsl 15 128 0 127 0 0 empty empty empty 0 -8 0 8 -262144
-1 -1 0 1;
#X obj 741 175 vsl 15 128 0 127 0 0 empty empty empty 0 -8 0 8 -262144
-1 -1 0 1;
#X obj 48 182 metro 10;
#X obj 48 157 loadbang;
#X obj 48 209 t b b;
#X obj 80 234 s \$0-link;
#X obj 48 260 s \$0-mass;
#X obj 18 306 link \$0-link 0 1 1;
#X obj 261 70 link \$0-link 0 1 1;
#X obj 431 70 link \$0-link 0 1 1;
#X obj 601 70 link \$0-link 0 1 1;
#X obj 771 70 link \$0-link 0 1 1;
#X obj 571 142 mass \$0-mass 30;
#X obj 741 142 mass \$0-mass 30;
#X obj 231 142 mass \$0-mass 30;
#X obj 401 142 mass \$0-mass 30;
#X obj 401 311 / 127;
#X obj 231 311 / 127;
#X obj 571 311 / 127;
#X obj 741 311 / 127;
#X obj 231 341 outlet;
#X obj 18 15 inlet;
#X obj 401 341 outlet;
#X obj 571 341 outlet;
#X obj 741 341 outlet;
#X obj 1046 15 inlet;
#X obj 911 175 vsl 15 128 0 127 0 0 empty empty empty 0 -8 0 8 -262144
-1 -1 0 1;
#X obj 941 70 link \$0-link 0 1 1;
#X obj 911 142 mass \$0-mass 30;
#X obj 911 311 / 127;
#X obj 911 341 outlet;
#X connect 0 0 19 0;
#X connect 1 0 18 0;
#X connect 2 0 20 0;
#X connect 3 0 21 0;
#X connect 4 0 6 0;
#X connect 5 0 4 0;
#X connect 6 0 8 0;
#X connect 6 1 7 0;
#X connect 9 1 16 0;
#X connect 10 0 16 0;
#X connect 10 1 17 0;
#X connect 11 0 17 0;
#X connect 11 1 14 0;
#X connect 12 0 14 0;
#X connect 12 1 15 0;
#X connect 13 0 15 0;
#X connect 13 1 30 0;
#X connect 14 0 2 0;
#X connect 14 0 11 1;
#X connect 14 0 12 0;
#X connect 15 0 3 0;
#X connect 15 0 12 1;
#X connect 15 0 13 0;
#X connect 16 0 0 0;
#X connect 16 0 9 1;
#X connect 16 0 10 0;
#X connect 17 0 1 0;
#X connect 17 0 10 1;
#X connect 17 0 11 0;
#X connect 18 0 24 0;
#X connect 19 0 22 0;
#X connect 20 0 25 0;
#X connect 21 0 26 0;
#X connect 23 0 9 0;
#X connect 27 0 29 1;
#X connect 28 0 31 0;
#X connect 29 0 30 0;
#X connect 30 0 28 0;
#X connect 30 0 29 0;
#X connect 30 0 13 1;
#X connect 31 0 32 0;
