#N canvas 324 241 1561 762 12;
#X obj 228 329 vsl 15 128 0 127 0 0 empty empty empty 0 -8 0 8 -262144
-1 -1 0 1;
#X obj 274 329 vsl 15 128 0 127 0 0 empty empty empty 0 -8 0 8 -262144
-1 -1 0 1;
#X obj 688 75 arduino;
#X msg 619 31 devices;
#X obj 688 134 route analog;
#X msg 752 31 pinMode 14 analog;
#X floatatom 228 235 6 0 0 0 - - -;
#X floatatom 228 294 6 0 0 0 - - -;
#X msg 688 31 open 6;
#X obj 235 656 player;
#X obj 219 626 player;
#X obj 204 596 player;
#X obj 189 566 player;
#X obj 753 106 print [arduino];
#X obj 508 329 vsl 15 128 0 127 0 0 empty empty empty 0 -8 0 8 -262144
-1 -1 0 1;
#X obj 554 329 vsl 15 128 0 127 0 0 empty empty empty 0 -8 0 8 -262144
-1 -1 0 1;
#X obj 508 473 springs;
#X obj 788 329 vsl 15 128 0 127 0 0 empty empty empty 0 -8 0 8 -262144
-1 -1 0 1;
#X obj 834 329 vsl 15 128 0 127 0 0 empty empty empty 0 -8 0 8 -262144
-1 -1 0 1;
#X floatatom 508 235 6 0 0 0 - - -;
#X floatatom 508 294 6 0 0 0 - - -;
#X floatatom 788 235 6 0 0 0 - - -;
#X floatatom 788 294 6 0 0 0 - - -;
#X obj 515 656 player;
#X obj 499 626 player;
#X obj 484 596 player;
#X obj 469 566 player;
#X obj 795 656 player;
#X obj 779 626 player;
#X obj 764 596 player;
#X obj 749 566 player;
#X obj 688 169 route 0 1 3 4 5;
#X obj 86 535 sample-loader;
#X obj 464 94 bng 15 250 50 0 empty empty empty 17 7 0 10 -262144 -1
-1;
#X msg 28 433 symbol samples/cello/*.wav;
#X obj 366 535 sample-loader;
#X msg 308 433 symbol samples/cello/*.wav;
#X obj 646 535 sample-loader;
#X msg 588 433 symbol samples/cello/*.wav;
#X msg 28 396 symbol samples/viola/*.wav;
#X text 485 95 START;
#X obj 464 120 s start;
#X obj 86 509 r start;
#X obj 366 509 r start;
#X obj 646 509 r start;
#X obj 988 329 vsl 15 128 0 127 0 0 empty empty empty 0 -8 0 8 -262144
-1 -1 6500 1;
#X floatatom 988 235 6 0 0 0 - - -;
#X floatatom 988 294 6 0 0 0 - - -;
#X obj 228 473 springs;
#X obj 788 473 springs;
#X obj 988 473 springs;
#X obj 1011 546 mtof;
#X obj 1011 595 line;
#X msg 1011 571 \$1 15;
#X obj 1073 673 catch~ sum;
#X obj 1073 712 output~;
#X obj 1011 519 * 127;
#X obj 1034 329 vsl 15 128 0 127 0 0 empty empty empty 0 -8 0 8 -262144
-1 -1 6500 1;
#X obj 1148 329 vsl 15 128 0 127 0 0 empty empty empty 0 -8 0 8 -262144
-1 -1 7400 1;
#X floatatom 1148 235 6 0 0 0 - - -;
#X floatatom 1148 294 6 0 0 0 - - -;
#X obj 1148 473 springs;
#X obj 1171 546 mtof;
#X obj 1171 595 line;
#X msg 1171 571 \$1 15;
#X obj 1171 519 * 127;
#X obj 1194 329 vsl 15 128 0 127 0 0 empty empty empty 0 -8 0 8 -262144
-1 -1 7400 1;
#X obj 1171 621 add-synth-rand;
#X obj 1071 570 loadbang;
#X msg 1071 595 100;
#X obj 1011 621 add-synth-rand;
#X obj 1071 546 bng 15 250 50 0 empty empty empty 17 7 0 10 -262144
-1 -1;
#X obj 1308 329 vsl 15 128 0 127 0 0 empty empty empty 0 -8 0 8 -262144
-1 -1 0 1;
#X floatatom 1308 235 6 0 0 0 - - -;
#X floatatom 1308 294 6 0 0 0 - - -;
#X obj 1308 473 springs;
#X obj 1354 329 vsl 15 128 0 127 0 0 empty empty empty 0 -8 0 8 -262144
-1 -1 0 1;
#X floatatom 1277 513 5 0 0 0 - - -;
#X floatatom 1277 590 5 0 0 0 - - -;
#X obj 1277 564 + 100;
#X obj 1308 264 expr (- $f1 - 3) * 127;
#X obj 1148 264 expr (- $f1 - 3) * 127;
#X obj 988 264 expr (- $f1 - 3) * 127;
#X obj 1277 538 * 3000;
#X obj 788 264 expr (- $f1 - 3) * 127;
#X obj 508 264 expr (- $f1 - 3) * 127;
#X obj 228 264 expr (- $f1 - 3) * 127;
#X connect 0 0 48 0;
#X connect 1 0 48 1;
#X connect 2 0 4 0;
#X connect 2 0 13 0;
#X connect 3 0 2 0;
#X connect 4 0 31 0;
#X connect 5 0 2 0;
#X connect 6 0 86 0;
#X connect 7 0 0 0;
#X connect 8 0 2 0;
#X connect 14 0 16 0;
#X connect 15 0 16 1;
#X connect 16 0 26 1;
#X connect 16 1 25 1;
#X connect 16 2 24 1;
#X connect 16 3 23 1;
#X connect 17 0 49 0;
#X connect 18 0 49 1;
#X connect 19 0 85 0;
#X connect 20 0 14 0;
#X connect 21 0 84 0;
#X connect 22 0 17 0;
#X connect 31 0 6 0;
#X connect 31 1 19 0;
#X connect 31 2 21 0;
#X connect 31 3 46 0;
#X connect 31 4 59 0;
#X connect 31 5 73 0;
#X connect 32 0 9 0;
#X connect 32 1 10 0;
#X connect 32 2 11 0;
#X connect 32 3 12 0;
#X connect 33 0 41 0;
#X connect 34 0 32 1;
#X connect 35 0 23 0;
#X connect 35 1 24 0;
#X connect 35 2 25 0;
#X connect 35 3 26 0;
#X connect 36 0 35 1;
#X connect 37 0 27 0;
#X connect 37 1 28 0;
#X connect 37 2 29 0;
#X connect 37 3 30 0;
#X connect 38 0 37 1;
#X connect 39 0 32 1;
#X connect 42 0 32 0;
#X connect 43 0 35 0;
#X connect 44 0 37 0;
#X connect 45 0 50 0;
#X connect 45 0 57 0;
#X connect 46 0 82 0;
#X connect 47 0 45 0;
#X connect 48 0 12 1;
#X connect 48 1 11 1;
#X connect 48 2 10 1;
#X connect 48 3 9 1;
#X connect 49 0 30 1;
#X connect 49 1 29 1;
#X connect 49 2 28 1;
#X connect 49 3 27 1;
#X connect 50 2 56 0;
#X connect 51 0 53 0;
#X connect 52 0 70 0;
#X connect 53 0 52 0;
#X connect 54 0 55 0;
#X connect 54 0 55 1;
#X connect 56 0 51 0;
#X connect 57 0 50 1;
#X connect 58 0 61 0;
#X connect 58 0 66 0;
#X connect 59 0 81 0;
#X connect 60 0 58 0;
#X connect 61 2 65 0;
#X connect 62 0 64 0;
#X connect 63 0 67 0;
#X connect 64 0 63 0;
#X connect 65 0 62 0;
#X connect 66 0 61 1;
#X connect 68 0 69 0;
#X connect 69 0 70 1;
#X connect 71 0 68 0;
#X connect 72 0 75 0;
#X connect 72 0 76 0;
#X connect 73 0 80 0;
#X connect 74 0 72 0;
#X connect 75 2 77 0;
#X connect 76 0 75 1;
#X connect 77 0 83 0;
#X connect 78 0 67 1;
#X connect 79 0 78 0;
#X connect 80 0 74 0;
#X connect 81 0 60 0;
#X connect 82 0 47 0;
#X connect 83 0 79 0;
#X connect 84 0 22 0;
#X connect 85 0 20 0;
#X connect 86 0 7 0;
